<svg xmlns="http://www.w3.org/2000/svg" viewBox="0 0 221.8 221.8"><defs><style>.cls-1{fill:#fff;}.cls-2{font-size:34.47px;font-family:Verdana-Bold, Verdana;font-weight:700;}.cls-2,.cls-6{fill:#005e9e;}.cls-3{letter-spacing:0.06em;}.cls-4{letter-spacing:0.04em;}.cls-5{fill:none;stroke:#009590;}.cls-7{fill:#009590;}</style></defs><title>Asset 1</title><g id="Layer_2" data-name="Layer 2"><g id="Layer_1-2" data-name="Layer 1"><circle class="cls-1" cx="110.9" cy="110.9" r="110.9"/><text class="cls-2" transform="translate(106.14 184.32)"><tspan class="cls-3">E</tspan><tspan class="cls-4" x="25.61" y="0">E</tspan><tspan x="50.54" y="0">A</tspan></text><path class="cls-5" d="M104.16,182.71H67.63a24.05,24.05,0,0,1-24.05-24.05V125.37"/><path class="cls-5" d="M130.21,32.39h23.6a24.05,24.05,0,0,1,24.05,24.05v88.18"/><path class="cls-6" d="M131.24,94.63a28.51,28.51,0,0,0-8.41-20.3,29.34,29.34,0,0,0-3.39-2.9L114.94,79c4.7,3.75,8.06,9.18,8.06,15.66a20.45,20.45,0,0,1-28,19l-4.16,7.2a28.72,28.72,0,0,0,40.35-26.24Z"/><path class="cls-7" d="M123.94,42.67a41.68,41.68,0,0,0-.74-7.44l-.16-.78-.59.53a43.54,43.54,0,0,0-5.14,5.58C108.84,51.48,104.52,66.09,107,75.3l.07.27.27.05a13.69,13.69,0,0,1,1.51.38,14.92,14.92,0,0,1,1.64.63l.25.12.21-.17C118.69,70.61,124.12,56.35,123.94,42.67Z"/><path class="cls-7" d="M94.72,32.3l-.49-.63-.3.74a42.93,42.93,0,0,0-2.14,7.27C89,53.22,91.61,68.24,98,75.38l.18.21.27-.07a15.57,15.57,0,0,1,1.53-.32,14.58,14.58,0,0,1,1.75-.16H102l.12-.25c4.24-8.75,2.81-23.94-3.4-36.13A41.66,41.66,0,0,0,94.72,32.3Z"/><path class="cls-7" d="M74.23,46.2a40.92,40.92,0,0,0-6.35-3.95l-.71-.35.06.79a43,43,0,0,0,1.3,7.47C72,63.55,81,75.87,89.83,79.47l.26.11.21-.19a15,15,0,0,1,1.23-1,14,14,0,0,1,1.5-.92l.25-.13v-.27C93.2,67.39,85.2,54.39,74.23,46.2Z"/><path class="cls-7" d="M52.29,69.87c9,10.45,22.54,17.55,32.06,16.86l.28,0,.11-.26A13.05,13.05,0,0,1,85.41,85a13.29,13.29,0,0,1,.94-1.48l.16-.22-.12-.25C82,74.41,69.1,66.29,55.66,63.79a41.55,41.55,0,0,0-7.45-.73h-.79l.41.69A43.31,43.31,0,0,0,52.29,69.87Z"/><path class="cls-7" d="M82.64,95.67l.24-.14,0-.27a15.51,15.51,0,0,1,0-1.56A14.08,14.08,0,0,1,83,91.94l0-.27-.22-.16c-7.75-5.86-22.93-7.43-36.1-3.72a41.25,41.25,0,0,0-7,2.63l-.72.35.67.43a43.55,43.55,0,0,0,6.71,3.52C59.17,100.09,74.4,100.49,82.64,95.67Z"/><path class="cls-7" d="M84.88,104.61l.15-.23-.14-.24a14.61,14.61,0,0,1-.71-1.39,15.77,15.77,0,0,1-.6-1.65l-.08-.27-.27-.05c-9.54-1.84-23.85,3.47-34,12.62a41.28,41.28,0,0,0-5.11,5.46l-.49.63.79.1a43.06,43.06,0,0,0,7.57.18C65.78,119,79.62,112.59,84.88,104.61Z"/><path class="cls-7" d="M89.47,110.14a14.33,14.33,0,0,1-1.27-1.22l-.18-.2-.27.07c-9.37,2.58-19.86,13.66-24.94,26.37a41.39,41.39,0,0,0-2.17,7.16l-.16.78.75-.27a43.68,43.68,0,0,0,6.88-3.18c12-6.83,21.61-18.67,22.8-28.14l0-.28-.23-.16A14.92,14.92,0,0,1,89.47,110.14Z"/><path class="cls-6" d="M156.91,103.26a44.46,44.46,0,0,0,6.15-2c.23-2.18.22-7.76.2-8.38a43.73,43.73,0,0,0-5.81-2.38c-3.83-1.21-9.33-1.75-13.13-2a20.43,20.43,0,0,0-1-4.44c3.38-1.87,8.21-4.65,11.19-7.38a40.68,40.68,0,0,0,4.31-4.57,60.61,60.61,0,0,0-3.71-7.64,42,42,0,0,0-6.12.69c-3.95.73-9.06,2.84-12.55,4.36a20.18,20.18,0,0,0-3-3.45c2.11-3.24,5.07-8,6.42-11.77a37,37,0,0,0,1.55-5.85,60.6,60.6,0,0,0-5.57-4.16l-13.12,22.7a34.63,34.63,0,0,1,4,3.43A34.32,34.32,0,0,1,88.67,126L75.46,148.9a61.36,61.36,0,0,0,6.24,2.7,42.13,42.13,0,0,0,3.91-4.17c2.55-3.1,5.12-8,6.82-11.42a20.31,20.31,0,0,0,4.49.74c.46,3.84,1.23,9.36,2.64,13.15a45.23,45.23,0,0,0,2.44,5.64c.18,0,6.08-.2,8.78-.56a46.8,46.8,0,0,0,1.53-5.88c.8-3.93.77-9.47.66-13.28a20.28,20.28,0,0,0,4.31-1.46c2.21,3.17,5.48,7.69,8.5,10.37a43,43,0,0,0,5,3.76,60.21,60.21,0,0,0,7.4-4.56,44.6,44.6,0,0,0-1.47-5.89c-1.14-3.85-3.76-8.72-5.65-12a20.14,20.14,0,0,0,3.12-3.3c3.45,1.76,8.44,4.21,12.37,5.16a43.63,43.63,0,0,0,6.25,1.09,60.73,60.73,0,0,0,4.34-7.4,45.49,45.49,0,0,0-4.12-4.7c-2.81-2.87-7.41-5.93-10.64-8a20.17,20.17,0,0,0,1.21-4.38C147.43,104.45,153,104.26,156.91,103.26Z"/></g></g></svg>