<svg id="Layer_1" data-name="Layer 1" xmlns="http://www.w3.org/2000/svg" viewBox="0 0 321 144.13"><defs><style>.cls-1{fill:#0d79bf;}.cls-2{fill:#16a7e1;}.cls-3{fill:#0195d1;}</style></defs><title>wise-logo-new</title><path class="cls-1" d="M1.68,84.45a13.89,13.89,0,0,0,1,2.37A21.83,21.83,0,0,0,4.08,89c.5.69,1,1.37,1.55,2s1.12,1.27,1.72,1.87a36.81,36.81,0,0,0,3.78,3.34,49.64,49.64,0,0,0,4.14,2.87,65.15,65.15,0,0,0,8.95,4.57l1.17.47c.39.16.77.32,1.17.46.79.29,1.57.6,2.36.87l1.19.42,1.2.39,1.2.38,1.21.36,1.21.36,1.22.33,1.22.33,1.23.31,1.22.31,1.23.28,1.23.28,1.24.26c1.65.36,3.31.66,5,1l2.5.42,2.51.38c3.35.48,6.71.89,10.08,1.2l1.26.12,1.27.1,2.53.21,2.54.17,1.27.08,1.27.06c6.78.37,13.59.5,20.41.47l5.11-.06c1.71,0,3.41-.07,5.12-.12l5.12-.17,5.12-.23,5.12-.28,5.12-.32c1.71-.11,3.41-.25,5.12-.37s3.42-.26,5.12-.4l2.56-.21,2.56-.23,2.56-.23,1.28-.11,1.28-.13,5.12-.5,5.23-.5A417.62,417.62,0,0,1,197.76,108l2.64,0,2.64.06c1.76,0,3.52.1,5.28.17l1.32.05,1.32.07,2.64.14c1.76.09,3.52.22,5.27.34l2.63.21c.88.07,1.76.14,2.63.23,1.75.17,3.51.33,5.26.54,3.51.37,7,.85,10.49,1.36,1.74.28,3.49.54,5.23.85.87.15,1.74.29,2.61.46l2.6.49q5.2,1,10.35,2.28a182.07,182.07,0,0,1,20.26,6.23c.82.32,1.65.62,2.47,1s1.64.65,2.45,1c1.63.68,3.25,1.39,4.85,2.14s3.19,1.53,4.76,2.33c.78.41,1.56.82,2.34,1.25l1.16.64,1.15.66a89.06,89.06,0,0,1,8.82,5.81c1.4,1.07,2.77,2.16,4.08,3.34a33.41,33.41,0,0,1,3.67,3.75c-.67-.56-1.37-1.07-2.08-1.56s-1.44-1-2.17-1.41q-2.2-1.36-4.49-2.55c-1.52-.79-3.06-1.55-4.62-2.26s-3.14-1.38-4.72-2-3.19-1.24-4.79-1.82-3.23-1.12-4.85-1.63l-1.22-.39-1.23-.37c-.81-.25-1.64-.48-2.46-.72-1.64-.46-3.29-.9-4.94-1.32A246.76,246.76,0,0,0,238.74,121c-6.79-.54-13.61-.86-20.43-1l-2.56,0c-.85,0-1.7,0-2.56,0l-2.56,0h-2.56c-1.71,0-3.41,0-5.12,0l-2.56,0-2.56.06c-13.66.33-27.32,1.23-41,2.53l-5.12.51-5.23.5-1.31.12-1.31.11-2.62.22-2.62.21-2.62.18c-3.5.26-7,.45-10.5.62-1.75.07-3.51.16-5.26.22l-5.27.14a297.19,297.19,0,0,1-42.23-1.92l-1.32-.16-1.32-.18-2.63-.37-2.63-.41-1.31-.21-1.31-.23-2.62-.47L57,120.88c-.87-.17-1.74-.37-2.61-.56s-1.74-.38-2.6-.6l-2.59-.64-2.58-.69c-1.71-.49-3.43-1-5.13-1.53l-1.27-.41L39,116l-1.27-.44-1.26-.46-1.26-.47-1.25-.5-1.24-.5-1.24-.53a87.07,87.07,0,0,1-9.61-4.83,62.67,62.67,0,0,1-8.8-6.22,47.09,47.09,0,0,1-3.9-3.73A39.25,39.25,0,0,1,5.8,94.16a29.4,29.4,0,0,1-2.64-4.65A17,17,0,0,1,1.68,84.45Z"/><path class="cls-2" d="M1.51,83.93A16,16,0,0,0,3,86.11c.53.69,1.1,1.35,1.7,2a36.36,36.36,0,0,0,3.82,3.5,52,52,0,0,0,8.65,5.56,86.71,86.71,0,0,0,19.24,7l1.25.31,1.25.28,1.25.28,1.26.26,1.26.25c.42.09.84.16,1.26.24.84.15,1.68.32,2.53.44l1.27.2,1.27.2,2.55.36,2.55.31c.85.11,1.71.19,2.56.28,3.42.34,6.84.63,10.28.79l1.29.07,1.29.05,2.58.1,2.58.06,1.29,0h1.29l2.58,0h2.59c1.72,0,3.45,0,5.17-.08.86,0,1.73,0,2.59-.07l2.59-.08,5.18-.24q5.18-.29,10.35-.68c3.45-.28,6.9-.57,10.35-.93l2.59-.27c.86-.09,1.72-.17,2.58-.28,1.72-.2,3.45-.38,5.17-.6l5.17-.64,5.16-.69q5.16-.72,10.31-1.5l2.58-.39,2.57-.42,2.57-.42,2.61-.41c7-1.15,14.14-2.08,21.27-2.75,1.78-.16,3.57-.31,5.35-.46.89-.08,1.79-.12,2.68-.18l2.68-.17c1.79-.1,3.58-.17,5.37-.26l5.38-.14q10.77-.17,21.56.64l1.35.1,1.35.13,2.69.26,2.69.3c.9.11,1.79.21,2.68.34,3.58.46,7.14,1.07,10.68,1.73,1.77.36,3.54.71,5.3,1.13s3.52.84,5.26,1.29,3.49,1,5.22,1.49l1.3.39,1.29.42,1.29.42.64.21.64.23q5.13,1.76,10.1,4t9.7,4.84a99.72,99.72,0,0,1,9.16,5.77,88.31,88.31,0,0,1,8.42,6.75,74,74,0,0,1,7.42,7.77c1.13,1.39,2.21,2.81,3.2,4.29a34.63,34.63,0,0,1,2.67,4.6c-.52-.71-1.08-1.39-1.65-2.05s-1.16-1.31-1.77-1.94q-1.82-1.88-3.78-3.61a80.62,80.62,0,0,0-8.21-6.36c-1.42-1-2.88-1.9-4.35-2.79-.74-.44-1.48-.89-2.23-1.3l-1.12-.63-1.13-.61c-3-1.63-6.13-3.1-9.28-4.43s-6.36-2.53-9.61-3.6c-.82-.26-1.62-.53-2.44-.78l-2.45-.74-2.47-.69-2.48-.64-.62-.16-.62-.15-1.25-.29-1.25-.29-1.25-.27c-1.67-.38-3.35-.69-5-1-3.36-.62-6.75-1.12-10.14-1.57A241.2,241.2,0,0,0,203,108.86l-5.15.29-5.15.37-5.15.46c-1.71.18-3.43.34-5.14.53l-5.14.61-5.13.68-5.13.75c-1.71.26-3.41.54-5.12.81l-5.23.84-2.63.42-2.64.39c-3.51.53-7,1-10.56,1.44l-5.3.62-5.31.56c-1.77.17-3.55.32-5.32.48-.89.08-1.77.15-2.66.22l-2.67.2c-3.56.24-7.12.45-10.68.59l-1.34.06-1.34,0-2.68.08c-.89,0-1.79,0-2.68,0l-2.68,0q-10.72.07-21.46-.75l-1.34-.1-1.34-.12-2.68-.25-2.68-.3-1.34-.15-1.34-.18c-.89-.12-1.78-.23-2.67-.36l-2.67-.41-1.33-.22-1.33-.23L56.73,116l-1.33-.26c-.88-.18-1.77-.34-2.65-.53l-2.64-.58L47.48,114c-.88-.21-1.75-.45-2.62-.68s-1.74-.49-2.61-.73-1.73-.51-2.59-.79l-1.29-.41L37.09,111l-1.28-.44-1.27-.47a94.44,94.44,0,0,1-10-4.32,71.44,71.44,0,0,1-9.3-5.61A50.33,50.33,0,0,1,7.17,93c-.3-.34-.6-.67-.88-1l-.43-.52-.42-.53c-.28-.35-.54-.72-.81-1.08s-.52-.73-.75-1.11a26.61,26.61,0,0,1-1.35-2.32A15,15,0,0,1,1.51,83.93Z"/><path class="cls-3" d="M41.75,1.37h.63a.26.26,0,0,1,.27.2l2.63,8.58q0,.15.08.32l.07.35.07-.35a2.68,2.68,0,0,1,.09-.32l2.95-8.58a.32.32,0,0,1,.1-.14.27.27,0,0,1,.18-.06H49a.26.26,0,0,1,.17.06.37.37,0,0,1,.1.14l2.95,8.58q.05.15.09.31t.08.35l.07-.34a2.78,2.78,0,0,1,.07-.31l2.63-8.58a.26.26,0,0,1,.1-.14.29.29,0,0,1,.18-.06H56L52.77,11.8h-.68L49,2.75a3.79,3.79,0,0,1-.1-.38,3.79,3.79,0,0,1-.1.38L45.71,11.8H45Z"/><path class="cls-3" d="M61.52,11.8a.25.25,0,0,1-.27-.21l-.1-.94a7.68,7.68,0,0,1-.6.53,3.6,3.6,0,0,1-.62.4,3.07,3.07,0,0,1-.7.25,3.76,3.76,0,0,1-.83.08,2.43,2.43,0,0,1-.73-.11,1.8,1.8,0,0,1-.63-.34,1.66,1.66,0,0,1-.44-.59,2,2,0,0,1-.17-.86,1.53,1.53,0,0,1,.27-.86,2.18,2.18,0,0,1,.83-.69A5.47,5.47,0,0,1,59,8a12.62,12.62,0,0,1,2.13-.21V7a2.46,2.46,0,0,0-.44-1.57,1.57,1.57,0,0,0-1.3-.55,2.46,2.46,0,0,0-.9.15,3.2,3.2,0,0,0-.63.32,4,4,0,0,0-.42.32.45.45,0,0,1-.27.15.24.24,0,0,1-.22-.13l-.13-.21A4.26,4.26,0,0,1,58,4.64a3.37,3.37,0,0,1,1.44-.29,2.62,2.62,0,0,1,1,.19,1.91,1.91,0,0,1,.73.54,2.36,2.36,0,0,1,.44.85A3.9,3.9,0,0,1,61.8,7V11.8Zm-2.95-.39a3.13,3.13,0,0,0,.79-.09,2.9,2.9,0,0,0,.66-.26,3.24,3.24,0,0,0,.57-.39q.27-.23.52-.49V8.27a13.12,13.12,0,0,0-1.8.16,5.2,5.2,0,0,0-1.25.35,1.83,1.83,0,0,0-.72.53,1.12,1.12,0,0,0-.23.7,1.54,1.54,0,0,0,.12.64,1.23,1.23,0,0,0,.79.7A1.88,1.88,0,0,0,58.57,11.41Z"/><path class="cls-3" d="M66,11.92a1.56,1.56,0,0,1-1.16-.41,1.74,1.74,0,0,1-.41-1.28v-5H63.38a.2.2,0,0,1-.13,0,.16.16,0,0,1-.05-.13V4.78l1.25-.09.18-2.62a.2.2,0,0,1,.05-.12.16.16,0,0,1,.13-.05h.33V4.7h2.31v.52H65.14v5a1.55,1.55,0,0,0,.08.52,1,1,0,0,0,.21.36.84.84,0,0,0,.32.21,1.17,1.17,0,0,0,.4.07,1.22,1.22,0,0,0,.46-.08,1.9,1.9,0,0,0,.33-.17l.23-.17a.25.25,0,0,1,.14-.08.16.16,0,0,1,.12.07l.19.31a2,2,0,0,1-.71.5A2.22,2.22,0,0,1,66,11.92Z"/><path class="cls-3" d="M72,4.35a3,3,0,0,1,1.15.21,2.58,2.58,0,0,1,.91.62,2.87,2.87,0,0,1,.6,1,4,4,0,0,1,.22,1.37.37.37,0,0,1,0,.22.18.18,0,0,1-.15.06H69.42V8a5,5,0,0,0,.19,1.45,3,3,0,0,0,.55,1.05,2.25,2.25,0,0,0,.86.64,2.83,2.83,0,0,0,1.12.21,3.35,3.35,0,0,0,1-.12,3.57,3.57,0,0,0,.68-.27,3.74,3.74,0,0,0,.44-.27.5.5,0,0,1,.24-.12.17.17,0,0,1,.15.07l.19.24a2,2,0,0,1-.47.41,3.34,3.34,0,0,1-.65.33,4.72,4.72,0,0,1-.77.22,4.22,4.22,0,0,1-.82.08,3.49,3.49,0,0,1-1.37-.26,2.92,2.92,0,0,1-1.06-.76A3.49,3.49,0,0,1,69,9.65,5.25,5.25,0,0,1,68.72,8a4.54,4.54,0,0,1,.22-1.46,3.34,3.34,0,0,1,.65-1.15,3,3,0,0,1,1-.76A3.41,3.41,0,0,1,72,4.35Zm0,.52a2.75,2.75,0,0,0-1,.18,2.22,2.22,0,0,0-.78.51,2.6,2.6,0,0,0-.53.8,3.63,3.63,0,0,0-.27,1h4.83a3.23,3.23,0,0,0-.16-1.06,2.27,2.27,0,0,0-.46-.79A2,2,0,0,0,73,5,2.34,2.34,0,0,0,72,4.87Z"/><path class="cls-3" d="M76.8,11.8V4.47h.37a.26.26,0,0,1,.18.05.26.26,0,0,1,.06.18l.06,1.55a3.49,3.49,0,0,1,.94-1.4,2.16,2.16,0,0,1,1.45-.51,2.53,2.53,0,0,1,.61.07,2.35,2.35,0,0,1,.53.2l-.1.49a.13.13,0,0,1-.15.12l-.13,0-.2-.07-.3-.07a2.51,2.51,0,0,0-.41,0,1.89,1.89,0,0,0-1.37.52A3.69,3.69,0,0,0,77.5,7V11.8Z"/><path class="cls-3" d="M86.89,11.8h-.76V1.37h.76Z"/><path class="cls-3" d="M89.91,11.8V4.47h.38a.2.2,0,0,1,.22.18l.07,1.11a4.12,4.12,0,0,1,1.17-1,2.91,2.91,0,0,1,1.49-.39,2.76,2.76,0,0,1,1.07.19,2,2,0,0,1,.76.55,2.45,2.45,0,0,1,.46.87,4,4,0,0,1,.15,1.15V11.8H95V7.12a2.51,2.51,0,0,0-.47-1.62,1.74,1.74,0,0,0-1.45-.59,2.56,2.56,0,0,0-1.34.37,3.9,3.9,0,0,0-1.11,1v5.5Z"/><path class="cls-3" d="M98.16,11.8V5.23l-1-.07q-.21,0-.21-.18V4.7h1.25V3.77a3.41,3.41,0,0,1,.16-1.1,2.18,2.18,0,0,1,.46-.79,1.86,1.86,0,0,1,.71-.48,2.56,2.56,0,0,1,.92-.16,2.69,2.69,0,0,1,.46,0,1.93,1.93,0,0,1,.41.11l0,.34q0,.1-.14.1l-.24,0-.37,0a2,2,0,0,0-.67.11,1.3,1.3,0,0,0-.53.34,1.6,1.6,0,0,0-.34.62,3.09,3.09,0,0,0-.12.93V4.7h2.38v.52H98.86V11.8Z"/><path class="cls-3" d="M105.43,4.35a3.53,3.53,0,0,1,1.41.27,2.88,2.88,0,0,1,1.05.76,3.38,3.38,0,0,1,.65,1.19,5.06,5.06,0,0,1,.22,1.56,5,5,0,0,1-.22,1.56,3.39,3.39,0,0,1-.65,1.19,2.84,2.84,0,0,1-1.05.76,3.89,3.89,0,0,1-2.82,0,2.87,2.87,0,0,1-1.05-.76,3.35,3.35,0,0,1-.66-1.19,5,5,0,0,1-.22-1.56,5.06,5.06,0,0,1,.22-1.56A3.35,3.35,0,0,1,103,5.38,2.91,2.91,0,0,1,104,4.62,3.53,3.53,0,0,1,105.43,4.35Zm0,7a2.72,2.72,0,0,0,1.15-.22,2.17,2.17,0,0,0,.82-.65,2.85,2.85,0,0,0,.49-1,5,5,0,0,0,.16-1.33,5.06,5.06,0,0,0-.16-1.33,2.88,2.88,0,0,0-.49-1,2.19,2.19,0,0,0-.82-.65,3,3,0,0,0-2.29,0,2.19,2.19,0,0,0-.82.65,2.93,2.93,0,0,0-.49,1,5,5,0,0,0-.17,1.33A4.94,4.94,0,0,0,103,9.46a2.89,2.89,0,0,0,.49,1,2.17,2.17,0,0,0,.82.65A2.72,2.72,0,0,0,105.43,11.35Z"/><path class="cls-3" d="M110.62,11.8V4.47H111a.26.26,0,0,1,.18.05.26.26,0,0,1,.06.18l.06,1.55a3.49,3.49,0,0,1,.94-1.4,2.16,2.16,0,0,1,1.45-.51,2.53,2.53,0,0,1,.61.07,2.35,2.35,0,0,1,.53.2l-.1.49a.13.13,0,0,1-.15.12l-.13,0-.2-.07-.3-.07a2.51,2.51,0,0,0-.41,0,1.89,1.89,0,0,0-1.37.52A3.69,3.69,0,0,0,111.32,7V11.8Z"/><path class="cls-3" d="M116.47,11.8V4.47h.38a.2.2,0,0,1,.22.18l.07,1.06a4.64,4.64,0,0,1,.46-.55,3,3,0,0,1,.52-.43,2.4,2.4,0,0,1,.59-.28,2.16,2.16,0,0,1,.66-.1,1.76,1.76,0,0,1,1.28.47,2.45,2.45,0,0,1,.65,1.3,2.55,2.55,0,0,1,.37-.79,2.33,2.33,0,0,1,.55-.55,2.28,2.28,0,0,1,.67-.32,2.64,2.64,0,0,1,.75-.11,2.53,2.53,0,0,1,1,.18,2,2,0,0,1,.74.53,2.42,2.42,0,0,1,.47.87A3.94,3.94,0,0,1,126,7.12V11.8h-.7V7.12a2.53,2.53,0,0,0-.46-1.64,1.62,1.62,0,0,0-1.33-.56,2,2,0,0,0-.73.14,1.77,1.77,0,0,0-.62.42,2,2,0,0,0-.43.69,2.66,2.66,0,0,0-.16,1V11.8h-.7V7.12a2.68,2.68,0,0,0-.43-1.64,1.46,1.46,0,0,0-1.25-.57,1.88,1.88,0,0,0-1.11.36,3.39,3.39,0,0,0-.91,1V11.8Z"/><path class="cls-3" d="M132.88,11.8a.25.25,0,0,1-.27-.21l-.1-.94a7.65,7.65,0,0,1-.6.53,3.59,3.59,0,0,1-.62.4,3.07,3.07,0,0,1-.7.25,3.76,3.76,0,0,1-.83.08,2.43,2.43,0,0,1-.73-.11,1.8,1.8,0,0,1-.63-.34,1.66,1.66,0,0,1-.44-.59,2,2,0,0,1-.17-.86,1.52,1.52,0,0,1,.27-.86,2.18,2.18,0,0,1,.83-.69A5.47,5.47,0,0,1,130.34,8a12.62,12.62,0,0,1,2.13-.21V7A2.46,2.46,0,0,0,132,5.46a1.57,1.57,0,0,0-1.3-.55,2.46,2.46,0,0,0-.9.15,3.21,3.21,0,0,0-.63.32,4,4,0,0,0-.42.32.45.45,0,0,1-.27.15.24.24,0,0,1-.22-.13l-.13-.21a4.26,4.26,0,0,1,1.21-.87,3.37,3.37,0,0,1,1.44-.29,2.62,2.62,0,0,1,1,.19,1.91,1.91,0,0,1,.73.54,2.36,2.36,0,0,1,.44.85A3.9,3.9,0,0,1,133.16,7V11.8Zm-2.95-.39a3.13,3.13,0,0,0,.79-.09,2.91,2.91,0,0,0,.66-.26,3.24,3.24,0,0,0,.57-.39q.27-.23.52-.49V8.27a13.12,13.12,0,0,0-1.8.16,5.2,5.2,0,0,0-1.25.35,1.83,1.83,0,0,0-.72.53,1.12,1.12,0,0,0-.23.7,1.54,1.54,0,0,0,.12.64,1.23,1.23,0,0,0,.79.7A1.88,1.88,0,0,0,129.93,11.41Z"/><path class="cls-3" d="M137.37,11.92a1.56,1.56,0,0,1-1.16-.41,1.74,1.74,0,0,1-.41-1.28v-5h-1.05a.2.2,0,0,1-.13,0,.16.16,0,0,1-.05-.13V4.78l1.25-.09L136,2.06a.2.2,0,0,1,.05-.12.16.16,0,0,1,.13-.05h.33V4.7h2.31v.52H136.5v5a1.55,1.55,0,0,0,.08.52,1,1,0,0,0,.21.36.84.84,0,0,0,.32.21,1.17,1.17,0,0,0,.4.07,1.22,1.22,0,0,0,.46-.08,1.9,1.9,0,0,0,.33-.17l.23-.17a.25.25,0,0,1,.14-.08.16.16,0,0,1,.12.07l.19.31a2,2,0,0,1-.71.5A2.22,2.22,0,0,1,137.37,11.92Z"/><path class="cls-3" d="M141.85,1.94a.56.56,0,0,1-.06.25.74.74,0,0,1-.14.2.67.67,0,0,1-.21.14.64.64,0,0,1-.5,0,.67.67,0,0,1-.21-.14.68.68,0,0,1-.14-.2.59.59,0,0,1-.05-.25.64.64,0,0,1,.05-.25.65.65,0,0,1,.14-.21.67.67,0,0,1,.21-.14.63.63,0,0,1,.5,0,.67.67,0,0,1,.21.14.71.71,0,0,1,.14.21A.61.61,0,0,1,141.85,1.94Zm-.31,2.53V11.8h-.7V4.47Z"/><path class="cls-3" d="M146.93,4.35a3.53,3.53,0,0,1,1.41.27,2.88,2.88,0,0,1,1.05.76A3.39,3.39,0,0,1,150,6.57a5.07,5.07,0,0,1,.22,1.56A5,5,0,0,1,150,9.69a3.39,3.39,0,0,1-.65,1.19,2.84,2.84,0,0,1-1.05.76,3.89,3.89,0,0,1-2.82,0,2.87,2.87,0,0,1-1.05-.76,3.35,3.35,0,0,1-.66-1.19,5,5,0,0,1-.22-1.56,5.06,5.06,0,0,1,.22-1.56,3.35,3.35,0,0,1,.66-1.19,2.91,2.91,0,0,1,1.05-.76A3.53,3.53,0,0,1,146.93,4.35Zm0,7a2.72,2.72,0,0,0,1.15-.22,2.17,2.17,0,0,0,.82-.65,2.84,2.84,0,0,0,.49-1,5,5,0,0,0,.16-1.33,5.06,5.06,0,0,0-.16-1.33,2.88,2.88,0,0,0-.49-1,2.19,2.19,0,0,0-.82-.65,3,3,0,0,0-2.29,0,2.19,2.19,0,0,0-.82.65,2.93,2.93,0,0,0-.49,1,5,5,0,0,0-.17,1.33,5,5,0,0,0,.17,1.33,2.89,2.89,0,0,0,.49,1,2.17,2.17,0,0,0,.82.65A2.72,2.72,0,0,0,146.93,11.35Z"/><path class="cls-3" d="M152.11,11.8V4.47h.38a.2.2,0,0,1,.22.18l.07,1.11a4.11,4.11,0,0,1,1.17-1,2.91,2.91,0,0,1,1.49-.39,2.76,2.76,0,0,1,1.07.19,2,2,0,0,1,.76.55,2.45,2.45,0,0,1,.46.87,3.94,3.94,0,0,1,.15,1.15V11.8h-.7V7.12a2.51,2.51,0,0,0-.47-1.62,1.74,1.74,0,0,0-1.45-.59,2.56,2.56,0,0,0-1.34.37,3.9,3.9,0,0,0-1.11,1v5.5Z"/><path class="cls-3" d="M168.34,2.64a.21.21,0,0,1-.19.13.42.42,0,0,1-.25-.14A3.18,3.18,0,0,0,166.84,2a3.26,3.26,0,0,0-2,0,2.09,2.09,0,0,0-.73.44,1.88,1.88,0,0,0-.44.65,2,2,0,0,0-.15.77,1.58,1.58,0,0,0,.23.88,2,2,0,0,0,.59.59,3.85,3.85,0,0,0,.84.41l1,.33q.49.16,1,.36A3.48,3.48,0,0,1,168,7a2.26,2.26,0,0,1,.59.73,2.3,2.3,0,0,1,.23,1.07,3.38,3.38,0,0,1-.22,1.24,2.88,2.88,0,0,1-.65,1,3.06,3.06,0,0,1-1,.67,3.8,3.8,0,0,1-1.42.25,4,4,0,0,1-1.78-.36,4.19,4.19,0,0,1-1.31-1l.21-.32a.26.26,0,0,1,.21-.11.3.3,0,0,1,.17.09l.25.22.35.28a2.93,2.93,0,0,0,.48.28,3.39,3.39,0,0,0,.63.22,3.34,3.34,0,0,0,.8.09,3.06,3.06,0,0,0,1.11-.19,2.42,2.42,0,0,0,.82-.51,2.17,2.17,0,0,0,.51-.77,2.56,2.56,0,0,0,.18-1,1.68,1.68,0,0,0-.23-.91,1.94,1.94,0,0,0-.59-.6,3.85,3.85,0,0,0-.84-.4l-1-.32q-.5-.15-1-.35a3.32,3.32,0,0,1-.84-.49,2.24,2.24,0,0,1-.59-.74,2.47,2.47,0,0,1-.23-1.12,2.64,2.64,0,0,1,.2-1,2.51,2.51,0,0,1,.58-.86,2.87,2.87,0,0,1,.95-.6,3.46,3.46,0,0,1,1.29-.22,3.91,3.91,0,0,1,1.46.26,3.49,3.49,0,0,1,1.18.79Z"/><path class="cls-3" d="M172.24,14.16a.5.5,0,0,1-.11.17.28.28,0,0,1-.2.07h-.5l1.29-2.87-3.1-7.06h.58a.25.25,0,0,1,.17.06.36.36,0,0,1,.09.12l2.47,5.71a2.35,2.35,0,0,1,.08.22l.06.23.08-.23.08-.22,2.44-5.71a.32.32,0,0,1,.1-.13.25.25,0,0,1,.15,0h.54Z"/><path class="cls-3" d="M181.86,5.38a.17.17,0,0,1-.16.1.4.4,0,0,1-.21-.09l-.34-.21a2.75,2.75,0,0,0-.52-.21,2.63,2.63,0,0,0-.75-.09,2.2,2.2,0,0,0-.73.11,1.81,1.81,0,0,0-.56.31,1.39,1.39,0,0,0-.36.44,1.16,1.16,0,0,0-.13.53.91.91,0,0,0,.18.57,1.52,1.52,0,0,0,.46.39,3.55,3.55,0,0,0,.65.28l.75.24q.38.12.75.26a2.82,2.82,0,0,1,.65.36,1.69,1.69,0,0,1,.46.52,1.49,1.49,0,0,1,.18.75,2.28,2.28,0,0,1-.17.89,2,2,0,0,1-.5.72,2.4,2.4,0,0,1-.81.48,3.14,3.14,0,0,1-1.09.18,3.29,3.29,0,0,1-1.33-.25,3.74,3.74,0,0,1-1-.65l.17-.25a.29.29,0,0,1,.08-.09.23.23,0,0,1,.13,0,.41.41,0,0,1,.24.12,2.92,2.92,0,0,0,.37.25,3,3,0,0,0,.56.25,2.52,2.52,0,0,0,.83.12,2.38,2.38,0,0,0,.82-.13,1.7,1.7,0,0,0,.59-.35,1.46,1.46,0,0,0,.36-.52,1.65,1.65,0,0,0,.12-.63,1,1,0,0,0-.18-.61,1.51,1.51,0,0,0-.46-.41,3.25,3.25,0,0,0-.65-.29l-.75-.24L178.74,8a2.72,2.72,0,0,1-.65-.35,1.71,1.71,0,0,1-.46-.52,1.5,1.5,0,0,1-.18-.76,1.75,1.75,0,0,1,.17-.75,1.91,1.91,0,0,1,.48-.63,2.38,2.38,0,0,1,.76-.43,3,3,0,0,1,1-.16,3.39,3.39,0,0,1,1.19.19,2.91,2.91,0,0,1,1,.59Z"/><path class="cls-3" d="M186.16,11.92a1.56,1.56,0,0,1-1.16-.41,1.74,1.74,0,0,1-.41-1.28v-5h-1.05a.2.2,0,0,1-.13,0,.16.16,0,0,1-.05-.13V4.78l1.25-.09.18-2.62a.2.2,0,0,1,.05-.12.17.17,0,0,1,.13-.05h.33V4.7h2.31v.52h-2.31v5a1.55,1.55,0,0,0,.08.52,1,1,0,0,0,.21.36.84.84,0,0,0,.32.21,1.17,1.17,0,0,0,.4.07,1.22,1.22,0,0,0,.46-.08,1.9,1.9,0,0,0,.33-.17l.23-.17a.25.25,0,0,1,.14-.08.16.16,0,0,1,.12.07l.19.31a2,2,0,0,1-.71.5A2.22,2.22,0,0,1,186.16,11.92Z"/><path class="cls-3" d="M192.19,4.35a3,3,0,0,1,1.15.21,2.58,2.58,0,0,1,.91.62,2.87,2.87,0,0,1,.6,1,4,4,0,0,1,.22,1.37.37.37,0,0,1,0,.22.18.18,0,0,1-.15.06h-5.29V8a5,5,0,0,0,.19,1.45,3,3,0,0,0,.55,1.05,2.25,2.25,0,0,0,.86.64,2.83,2.83,0,0,0,1.12.21,3.35,3.35,0,0,0,1-.12,3.58,3.58,0,0,0,.68-.27,3.73,3.73,0,0,0,.44-.27.5.5,0,0,1,.24-.12.17.17,0,0,1,.15.07l.19.24a2,2,0,0,1-.47.41,3.34,3.34,0,0,1-.65.33,4.72,4.72,0,0,1-.77.22,4.22,4.22,0,0,1-.82.08,3.49,3.49,0,0,1-1.37-.26,2.92,2.92,0,0,1-1.06-.76,3.49,3.49,0,0,1-.69-1.23A5.25,5.25,0,0,1,188.88,8a4.54,4.54,0,0,1,.22-1.46,3.34,3.34,0,0,1,.65-1.15,3,3,0,0,1,1-.76A3.41,3.41,0,0,1,192.19,4.35Zm0,.52a2.75,2.75,0,0,0-1,.18,2.22,2.22,0,0,0-.78.51,2.59,2.59,0,0,0-.53.8,3.63,3.63,0,0,0-.27,1h4.83a3.23,3.23,0,0,0-.16-1.06,2.27,2.27,0,0,0-.46-.79,2,2,0,0,0-.71-.5A2.34,2.34,0,0,0,192.2,4.87Z"/><path class="cls-3" d="M197,11.8V4.47h.38a.2.2,0,0,1,.22.18l.07,1.06a4.63,4.63,0,0,1,.46-.55,3,3,0,0,1,.52-.43,2.4,2.4,0,0,1,.59-.28,2.16,2.16,0,0,1,.66-.1,1.76,1.76,0,0,1,1.28.47,2.45,2.45,0,0,1,.65,1.3,2.55,2.55,0,0,1,.37-.79,2.33,2.33,0,0,1,.55-.55,2.28,2.28,0,0,1,.67-.32,2.64,2.64,0,0,1,.75-.11,2.53,2.53,0,0,1,1,.18,2,2,0,0,1,.74.53,2.42,2.42,0,0,1,.47.87,3.94,3.94,0,0,1,.16,1.18V11.8h-.7V7.12a2.52,2.52,0,0,0-.46-1.64A1.62,1.62,0,0,0,204,4.91a2,2,0,0,0-.73.14,1.78,1.78,0,0,0-.62.42,2,2,0,0,0-.43.69,2.66,2.66,0,0,0-.16,1V11.8h-.7V7.12a2.68,2.68,0,0,0-.43-1.64,1.46,1.46,0,0,0-1.25-.57,1.88,1.88,0,0,0-1.11.36,3.39,3.39,0,0,0-.91,1V11.8Z"/><path class="cls-3" d="M211.81,11.8V5.23l-1-.07q-.21,0-.21-.18V4.7h1.25V3.77a3.41,3.41,0,0,1,.16-1.1,2.17,2.17,0,0,1,.46-.79,1.86,1.86,0,0,1,.71-.48,2.56,2.56,0,0,1,.92-.16,2.69,2.69,0,0,1,.46,0,1.93,1.93,0,0,1,.41.11l0,.34q0,.1-.14.1l-.24,0-.37,0a2,2,0,0,0-.67.11,1.3,1.3,0,0,0-.53.34,1.6,1.6,0,0,0-.34.62,3.09,3.09,0,0,0-.12.93V4.7h2.38v.52h-2.37V11.8Z"/><path class="cls-3" d="M219.08,4.35a3.53,3.53,0,0,1,1.41.27,2.88,2.88,0,0,1,1.05.76,3.39,3.39,0,0,1,.65,1.19,5.07,5.07,0,0,1,.22,1.56,5,5,0,0,1-.22,1.56,3.39,3.39,0,0,1-.65,1.19,2.84,2.84,0,0,1-1.05.76,3.89,3.89,0,0,1-2.82,0,2.87,2.87,0,0,1-1.05-.76A3.35,3.35,0,0,1,216,9.69a5,5,0,0,1-.22-1.56A5.06,5.06,0,0,1,216,6.57a3.35,3.35,0,0,1,.66-1.19,2.91,2.91,0,0,1,1.05-.76A3.53,3.53,0,0,1,219.08,4.35Zm0,7a2.72,2.72,0,0,0,1.15-.22,2.17,2.17,0,0,0,.82-.65,2.84,2.84,0,0,0,.49-1,5,5,0,0,0,.16-1.33,5.06,5.06,0,0,0-.16-1.33,2.88,2.88,0,0,0-.49-1,2.19,2.19,0,0,0-.82-.65,3,3,0,0,0-2.29,0,2.19,2.19,0,0,0-.82.65,2.93,2.93,0,0,0-.49,1,5,5,0,0,0-.17,1.33,5,5,0,0,0,.17,1.33,2.89,2.89,0,0,0,.49,1,2.17,2.17,0,0,0,.82.65A2.72,2.72,0,0,0,219.08,11.35Z"/><path class="cls-3" d="M224.26,11.8V4.47h.37a.26.26,0,0,1,.18.05.26.26,0,0,1,.06.18l.06,1.55a3.49,3.49,0,0,1,.94-1.4,2.16,2.16,0,0,1,1.45-.51,2.53,2.53,0,0,1,.61.07,2.35,2.35,0,0,1,.53.2l-.1.49a.13.13,0,0,1-.15.12l-.13,0-.2-.07-.3-.07a2.51,2.51,0,0,0-.41,0,1.89,1.89,0,0,0-1.37.52A3.69,3.69,0,0,0,225,7V11.8Z"/><path class="cls-3" d="M239.57,1.37V2h-5.49V6.22h4.57v.61h-4.57v4.35h5.49v.63h-6.25V1.37Z"/><path class="cls-3" d="M242.19,4.47V9.16a2.51,2.51,0,0,0,.47,1.62,1.74,1.74,0,0,0,1.44.59,2.6,2.6,0,0,0,1.34-.36,3.9,3.9,0,0,0,1.12-1V4.47h.7V11.8h-.39q-.2,0-.21-.19l-.07-1.09a4.16,4.16,0,0,1-1.18,1,2.94,2.94,0,0,1-1.49.38,2.76,2.76,0,0,1-1.07-.19,2,2,0,0,1-.76-.55,2.44,2.44,0,0,1-.46-.87,3.94,3.94,0,0,1-.16-1.15V4.47Z"/><path class="cls-3" d="M249.65,11.8V4.47H250a.26.26,0,0,1,.18.05.26.26,0,0,1,.06.18l.06,1.55a3.49,3.49,0,0,1,.94-1.4,2.16,2.16,0,0,1,1.45-.51,2.53,2.53,0,0,1,.61.07,2.35,2.35,0,0,1,.53.2l-.1.49a.13.13,0,0,1-.15.12l-.13,0-.2-.07-.3-.07a2.51,2.51,0,0,0-.41,0,1.89,1.89,0,0,0-1.37.52A3.69,3.69,0,0,0,250.35,7V11.8Z"/><path class="cls-3" d="M258.3,4.35a3.53,3.53,0,0,1,1.41.27,2.88,2.88,0,0,1,1.05.76,3.39,3.39,0,0,1,.65,1.19,5.07,5.07,0,0,1,.22,1.56,5,5,0,0,1-.22,1.56,3.39,3.39,0,0,1-.65,1.19,2.84,2.84,0,0,1-1.05.76,3.89,3.89,0,0,1-2.82,0,2.87,2.87,0,0,1-1.05-.76,3.35,3.35,0,0,1-.66-1.19A5,5,0,0,1,255,8.13a5.06,5.06,0,0,1,.22-1.56,3.35,3.35,0,0,1,.66-1.19,2.91,2.91,0,0,1,1.05-.76A3.53,3.53,0,0,1,258.3,4.35Zm0,7a2.72,2.72,0,0,0,1.15-.22,2.17,2.17,0,0,0,.82-.65,2.84,2.84,0,0,0,.49-1,5,5,0,0,0,.16-1.33,5.06,5.06,0,0,0-.16-1.33,2.88,2.88,0,0,0-.49-1,2.19,2.19,0,0,0-.82-.65,3,3,0,0,0-2.29,0,2.19,2.19,0,0,0-.82.65,2.93,2.93,0,0,0-.49,1,5,5,0,0,0-.17,1.33,5,5,0,0,0,.17,1.33,2.89,2.89,0,0,0,.49,1,2.17,2.17,0,0,0,.82.65A2.72,2.72,0,0,0,258.3,11.35Z"/><path class="cls-3" d="M263.49,14.4V4.47h.38a.27.27,0,0,1,.15,0,.18.18,0,0,1,.07.14l.07,1.14a3.89,3.89,0,0,1,1.14-1.05,2.79,2.79,0,0,1,1.46-.39,2.55,2.55,0,0,1,2.11.94,4.43,4.43,0,0,1,.75,2.81,5.18,5.18,0,0,1-.21,1.5,3.61,3.61,0,0,1-.62,1.21,2.91,2.91,0,0,1-1,.81,3,3,0,0,1-1.37.29,2.87,2.87,0,0,1-1.3-.27,2.64,2.64,0,0,1-.94-.81V14.4Zm3.07-9.49a2.4,2.4,0,0,0-1.32.38,3.65,3.65,0,0,0-1.05,1.06V10.2a2.51,2.51,0,0,0,.93.89,2.81,2.81,0,0,0,2.3,0,2.23,2.23,0,0,0,.81-.67,3,3,0,0,0,.49-1,5,5,0,0,0,.17-1.32,3.91,3.91,0,0,0-.6-2.41A2.07,2.07,0,0,0,266.56,4.91Z"/><path class="cls-3" d="M274.14,4.35a3,3,0,0,1,1.15.21,2.58,2.58,0,0,1,.91.62,2.87,2.87,0,0,1,.6,1A4,4,0,0,1,277,7.56a.37.37,0,0,1,0,.22.18.18,0,0,1-.15.06h-5.29V8a5,5,0,0,0,.19,1.45,3,3,0,0,0,.55,1.05,2.25,2.25,0,0,0,.86.64,2.83,2.83,0,0,0,1.12.21,3.35,3.35,0,0,0,1-.12,3.58,3.58,0,0,0,.68-.27,3.73,3.73,0,0,0,.44-.27.5.5,0,0,1,.24-.12.17.17,0,0,1,.15.07l.19.24a2,2,0,0,1-.47.41,3.34,3.34,0,0,1-.65.33,4.72,4.72,0,0,1-.77.22,4.22,4.22,0,0,1-.82.08,3.49,3.49,0,0,1-1.37-.26,2.92,2.92,0,0,1-1.06-.76,3.49,3.49,0,0,1-.69-1.23A5.25,5.25,0,0,1,270.83,8a4.54,4.54,0,0,1,.22-1.46,3.34,3.34,0,0,1,.65-1.15,3,3,0,0,1,1-.76A3.41,3.41,0,0,1,274.14,4.35Zm0,.52a2.75,2.75,0,0,0-1,.18,2.22,2.22,0,0,0-.78.51,2.59,2.59,0,0,0-.53.8,3.63,3.63,0,0,0-.27,1h4.83a3.23,3.23,0,0,0-.16-1.06,2.27,2.27,0,0,0-.46-.79,2,2,0,0,0-.71-.5A2.34,2.34,0,0,0,274.15,4.87Z"/><path class="cls-3" d="M45.51,19.14H56.07a4.55,4.55,0,0,1,2.73.79,3.79,3.79,0,0,1,1.47,2.13L71.76,63.53c.28,1,.54,2.13.77,3.33s.46,2.47.68,3.81q.38-2,.82-3.81c.3-1.2.62-2.31,1-3.33L88.25,22.06a4.52,4.52,0,0,1,1.47-2,4.08,4.08,0,0,1,2.69-.91h3.69a4.45,4.45,0,0,1,2.71.79,4.08,4.08,0,0,1,1.49,2.13l13.17,41.46a55.68,55.68,0,0,1,1.77,6.81c.22-1.24.44-2.45.68-3.59s.47-2.22.72-3.21l11.49-41.46A3.84,3.84,0,0,1,129.58,20a4.29,4.29,0,0,1,2.71-.86h9.85l-21,69.31H109.82L95.06,41.09q-.28-.91-.59-2t-.58-2.25c-.19.8-.38,1.55-.59,2.25s-.4,1.36-.58,2L77.83,88.46H66.48Z"/><path class="cls-3" d="M166.8,88.46H154.19V19.14H166.8Z"/><path class="cls-3" d="M218.17,31.75A3.51,3.51,0,0,1,217,33.23a2.93,2.93,0,0,1-1.61.43,4,4,0,0,1-2.1-.75q-1.17-.74-2.76-1.65a22.78,22.78,0,0,0-3.71-1.65,15.34,15.34,0,0,0-5-.74,14.35,14.35,0,0,0-4.55.65,9.48,9.48,0,0,0-3.27,1.8,7.11,7.11,0,0,0-2,2.75,9.25,9.25,0,0,0-.65,3.52,6.22,6.22,0,0,0,1.33,4.08,11.1,11.1,0,0,0,3.53,2.78,32.65,32.65,0,0,0,5,2.06q2.8.91,5.72,1.94a54.72,54.72,0,0,1,5.72,2.4,19.83,19.83,0,0,1,5,3.45,15.66,15.66,0,0,1,3.53,5.1,18.19,18.19,0,0,1,1.33,7.34,24.48,24.48,0,0,1-1.57,8.79,20.32,20.32,0,0,1-4.58,7.14A21.5,21.5,0,0,1,209,87.47a26.47,26.47,0,0,1-10,1.75,31.45,31.45,0,0,1-6.35-.65,33.17,33.17,0,0,1-6-1.85,31,31,0,0,1-5.37-2.88,26.53,26.53,0,0,1-4.46-3.74l3.64-6.18a4.67,4.67,0,0,1,1.24-1.13,3,3,0,0,1,1.61-.46,4.39,4.39,0,0,1,2.52,1q1.35,1,3.2,2.18a23.93,23.93,0,0,0,4.34,2.18,16.41,16.41,0,0,0,6,1q5.37,0,8.32-2.61t2.94-7.51a7.1,7.1,0,0,0-1.33-4.46,10.84,10.84,0,0,0-3.53-2.9,26.25,26.25,0,0,0-5-2q-2.8-.81-5.7-1.77a48.58,48.58,0,0,1-5.7-2.3,18.44,18.44,0,0,1-5-3.5,16,16,0,0,1-3.53-5.4,21.07,21.07,0,0,1-1.33-8A19.33,19.33,0,0,1,181,30.88a18.91,18.91,0,0,1,4.3-6.37A21.13,21.13,0,0,1,192.25,20a24.65,24.65,0,0,1,9.39-1.68,30.82,30.82,0,0,1,11,1.92,24.76,24.76,0,0,1,8.59,5.37Z"/><path class="cls-3" d="M274.69,19.14V29.4H244.75V48.62h23.59v9.92H244.75V78.15h29.94V88.46H232.09V19.14Z"/></svg>