<svg xmlns="http://www.w3.org/2000/svg" viewBox="0 0 92.03 88.01"><defs><style>.cls-1{fill:#fff;}</style></defs><title>Asset 14</title><g id="Layer_2" data-name="Layer 2"><g id="Layer_16" data-name="Layer 16"><path class="cls-1" d="M31,54a22.71,22.71,0,0,0,.93,3.24H0V0H3.24V54ZM43.71,27.2l4.4-10.45,4.71,2L51,4.59,39.66,13.21l4.67,1.95L39.18,27.36l-7-8.12-7.37,14-7.37-7.13L9,45.15l3.74,1.65,6-13.72,7.07,6.86L33,26.43l4.56,5.27a24.81,24.81,0,0,1,6.17-4.49ZM91.55,79.09,76.9,63a1.8,1.8,0,0,0-2.19-.3,24.59,24.59,0,0,1-7.34,6.93,1.85,1.85,0,0,0,.36,1.7L82.35,87.39a1.94,1.94,0,0,0,2.7.15l6.35-5.75a1.93,1.93,0,0,0,.15-2.69ZM75.82,48.89a21.46,21.46,0,0,1-1.17,6.93,21.1,21.1,0,0,1-41-6.93A20.66,20.66,0,0,1,34.78,42a21.11,21.11,0,0,1,41,6.89Zm-5.72,0A15.41,15.41,0,0,0,59.74,34.37a15.44,15.44,0,0,0-19.56,9.49A15.41,15.41,0,0,0,49.7,63.42a15.37,15.37,0,0,0,19.56-9.49,15.86,15.86,0,0,0,.84-5Zm0,0"/></g></g></svg>