<svg xmlns="http://www.w3.org/2000/svg" viewBox="0 0 55.26 64.47"><defs><style>.cls-1{fill:#fff;}</style></defs><title>Asset 20</title><g id="Layer_2" data-name="Layer 2"><g id="Layer_16" data-name="Layer 16"><path class="cls-1" d="M55.26,19.57V61a3.45,3.45,0,0,1-3.45,3.45H3.45A3.45,3.45,0,0,1,0,61V3.45A3.45,3.45,0,0,1,3.45,0H35.69a9.65,9.65,0,0,1,5.9,2.45L52.82,13.67A9.65,9.65,0,0,1,55.26,19.57ZM50.66,23h-15a3.45,3.45,0,0,1-3.45-3.45v-15H4.61V59.87H50.66ZM36.84,18.42H50.37a4.59,4.59,0,0,0-.79-1.47L38.32,5.68a4.59,4.59,0,0,0-1.47-.79Z"/></g></g></svg>