<svg xmlns="http://www.w3.org/2000/svg" viewBox="0 0 76.87 72.03"><defs><style>.cls-1{fill:#fff;}</style></defs><title>Asset 16</title><g id="Layer_2" data-name="Layer 2"><g id="Layer_16" data-name="Layer 16"><path class="cls-1" d="M12.75,20.78H44a2.24,2.24,0,0,0,0-4.48H12.75a2.24,2.24,0,0,0,0,4.48Zm0,0"/><path class="cls-1" d="M12.75,28.48H44A2.24,2.24,0,0,0,44,24H12.75a2.24,2.24,0,1,0,0,4.48Zm0,0"/><path class="cls-1" d="M29.28,54.79H12.75a2.24,2.24,0,1,0,0,4.48H29.28a2.24,2.24,0,1,0,0-4.48Zm0,0"/><path class="cls-1" d="M75.78,4.27l-6.59-4a2.24,2.24,0,0,0-3.07.77L54.65,20.2V6.65a2.24,2.24,0,0,0-2.24-2.24H2.24A2.24,2.24,0,0,0,0,6.65V69.79A2.24,2.24,0,0,0,2.24,72H52.41a2.24,2.24,0,0,0,2.24-2.24V43.84L76.55,7.35a2.24,2.24,0,0,0-.77-3.07ZM46.85,48.14l-3.72,3.09,1-4.73L65.6,10.67l2.74,1.65ZM70.65,8.48,67.9,6.83l.91-1.51L71.56,7ZM4.48,67.55V8.9H50.17V27.67l-4,6.6a2.27,2.27,0,0,0,0-.33A2.24,2.24,0,0,0,44,31.7H12.75a2.24,2.24,0,1,0,0,4.48H44a2.23,2.23,0,0,0,1.33-.44l-2.19,3.66H12.75a2.24,2.24,0,1,0,0,4.48h27.7l-.39.64a2.27,2.27,0,0,0-.27.7l-.38,1.87H12.75a2.24,2.24,0,1,0,0,4.48H38.48l-1,5a2.24,2.24,0,0,0,3.63,2.18L50,51.35l.17-.17V67.55Zm0,0"/></g></g></svg>