<svg xmlns="http://www.w3.org/2000/svg" viewBox="0 0 86.36 42.6"><defs><style>.cls-1{fill:#fff;}</style></defs><title>Asset 15</title><g id="Layer_2" data-name="Layer 2"><g id="Layer_16" data-name="Layer 16"><path class="cls-1" d="M86.36,42.6a16.86,16.86,0,0,1-10.64-3.52c-2-1.32-3.39-2.28-6.6-2.28s-4.63,1-6.6,2.28a17.86,17.86,0,0,1-21.28,0c-2-1.32-3.39-2.28-6.59-2.28s-4.63,1-6.59,2.28A17.08,17.08,0,0,1,17.43,42.6,17.4,17.4,0,0,1,6.69,39.09,10.36,10.36,0,0,0,0,36.81V29.56a17.18,17.18,0,0,1,10.73,3.51,10.2,10.2,0,0,0,6.64,2.28c3.2,0,4.65-1,6.62-2.28a17.12,17.12,0,0,1,10.65-3.51,17.1,17.1,0,0,1,10.65,3.51c2,1.32,3.39,2.28,6.6,2.28s4.63-1,6.6-2.28a17.87,17.87,0,0,1,21.28,0c2,1.32,3.41,2.28,6.6,2.28Zm0,0"/><path class="cls-1" d="M86.36,27.82a16.85,16.85,0,0,1-10.64-3.51C73.75,23,72.33,22,69.13,22s-4.63,1-6.6,2.28a17.86,17.86,0,0,1-21.28,0C39.28,23,37.86,22,34.66,22S30,23,28.07,24.31a17.08,17.08,0,0,1-10.64,3.51A17.39,17.39,0,0,1,6.69,24.31,10.36,10.36,0,0,0,0,22V14.78A17.17,17.17,0,0,1,10.73,18.3a10.2,10.2,0,0,0,6.64,2.28c3.2,0,4.65-1,6.62-2.28a17.11,17.11,0,0,1,10.65-3.51A17.09,17.09,0,0,1,45.29,18.3c2,1.32,3.39,2.28,6.6,2.28s4.63-1,6.6-2.28a17.86,17.86,0,0,1,21.28,0c2,1.32,3.41,2.28,6.6,2.28Zm0,0"/><path class="cls-1" d="M86.36,13A16.85,16.85,0,0,1,75.72,9.53c-2-1.32-3.39-2.28-6.6-2.28s-4.63,1-6.6,2.28A17.08,17.08,0,0,1,51.89,13,17.08,17.08,0,0,1,41.25,9.53c-2-1.32-3.39-2.28-6.59-2.28S30,8.2,28.07,9.53A17.08,17.08,0,0,1,17.43,13,17.39,17.39,0,0,1,6.69,9.53,10.36,10.36,0,0,0,0,7.25V0A17.17,17.17,0,0,1,10.73,3.51,10.2,10.2,0,0,0,17.38,5.8c3.2,0,4.65-1,6.62-2.28A17.11,17.11,0,0,1,34.65,0,17.09,17.09,0,0,1,45.29,3.51c2,1.32,3.39,2.28,6.6,2.28s4.63-1,6.6-2.28a17.86,17.86,0,0,1,21.28,0c2,1.32,3.41,2.28,6.6,2.28Zm0,0"/></g></g></svg>