<svg xmlns="http://www.w3.org/2000/svg" viewBox="0 0 73.51 65.09"><defs><style>.cls-1{fill:#fff;}</style></defs><title>Asset 18</title><g id="Layer_2" data-name="Layer 2"><g id="Layer_16" data-name="Layer 16"><path class="cls-1" d="M35.13,41.78a2.47,2.47,0,0,0,3.26,0C39,41.26,52.84,28.9,52.84,16.09a16.08,16.08,0,1,0-32.17,0c0,12.81,13.86,25.17,14.45,25.69Zm1.63-29.89a4.2,4.2,0,1,1-4.17,4.2,4.19,4.19,0,0,1,4.17-4.2Zm0,0"/><path class="cls-1" d="M67.66,41.77,65.8,35.24a2.47,2.47,0,0,0-2.37-1.79H50.13q-.72,1.07-1.53,2.15a61.53,61.53,0,0,1-7.94,8.76,5.92,5.92,0,0,1-7.83,0,61.67,61.67,0,0,1-7.94-8.76q-.8-1.08-1.52-2.15H10.09a2.47,2.47,0,0,0-2.37,1.79L5.49,43l49.64,9.09Zm0,0"/><path class="cls-1" d="M73.42,62,68.66,45.27,45,65.09H71A2.47,2.47,0,0,0,73.42,62Zm0,0"/><path class="cls-1" d="M12.08,47.74,4.54,46.36.09,62a2.47,2.47,0,0,0,2.37,3.14h9.61Zm0,0"/><path class="cls-1" d="M15.53,48.38V65.09H39.67L51.7,55Zm0,0"/></g></g></svg>