<svg xmlns="http://www.w3.org/2000/svg" viewBox="0 0 12 12"><defs><style>.cls-1{fill:#0071b3;}</style></defs><title>Asset 8</title><g id="Layer_2" data-name="Layer 2"><g id="Layer_2-2" data-name="Layer 2"><path class="cls-1" d="M12,3.21v8.15a.64.64,0,0,1-.64.64H4.93a.64.64,0,0,1-.64-.64V9.43H.64A.64.64,0,0,1,0,8.79V4.29a1.8,1.8,0,0,1,.46-1.1L3.19.46A1.8,1.8,0,0,1,4.29,0H7.07a.64.64,0,0,1,.64.64v2.2a1.86,1.86,0,0,1,.86-.27h2.79A.64.64,0,0,1,12,3.21Zm-5.14.43V.86H4.29V3.64a.64.64,0,0,1-.64.64H.86V8.57H4.29V6.86a1.8,1.8,0,0,1,.46-1.1ZM1.43,3.43h2v-2Zm9.72,0H8.57V6.22a.64.64,0,0,1-.64.64H5.14v4.29h6ZM5.71,6h2V4Z"/></g></g></svg>