<svg xmlns="http://www.w3.org/2000/svg" viewBox="0 0 10.29 12"><defs><style>.cls-1{fill:#0071b3;}</style></defs><title>Asset 5</title><g id="Layer_2" data-name="Layer 2"><g id="Layer_2-2" data-name="Layer 2"><path class="cls-1" d="M10.29,3.64v7.72a.64.64,0,0,1-.64.64h-9A.64.64,0,0,1,0,11.36V.64A.64.64,0,0,1,.64,0h6a1.8,1.8,0,0,1,1.1.46L9.83,2.55A1.8,1.8,0,0,1,10.29,3.64Zm-.86.64H6.65A.64.64,0,0,1,6,3.64V.86H.86V11.15H9.43ZM1.71,5.57A1.29,1.29,0,1,1,3,6.86,1.29,1.29,0,0,1,1.71,5.57Zm6.86,4.72H1.71V9L3,7.72l.86.86L6.43,6,8.57,8.15ZM6.86,3.43H9.38a.85.85,0,0,0-.15-.27l-2.1-2.1A.86.86,0,0,0,6.86.91Z"/></g></g></svg>