<svg xmlns="http://www.w3.org/2000/svg" viewBox="0 0 10.29 10.29"><defs><style>.cls-1{fill:#0071b3;}</style></defs><title>Asset 6</title><g id="Layer_2" data-name="Layer 2"><g id="Layer_2-2" data-name="Layer 2"><path class="cls-1" d="M10.29,5.14A5.14,5.14,0,1,1,5.14,0,5.15,5.15,0,0,1,10.29,5.14ZM6.83,3.62s.07-.13.09-.15a.45.45,0,0,1,.15-.1,1.57,1.57,0,0,1,.35-.08.34.34,0,0,1,.34.07s.14-.16.16-.17.16,0,.2-.08a.62.62,0,0,0,0-.15C8,3,8,2.87,8,2.77l0,.05c0-.1-.12,0-.17,0s-.13-.15-.18-.26-.1-.08-.13-.14,0-.13-.1-.13-.11.14-.13.13-.09,0-.13,0-.07,0-.11,0c.12,0-.05-.11-.11-.09.09,0,0-.13,0-.17h0c0-.06-.2-.11-.26-.15A.87.87,0,0,0,6.18,2c-.08,0,0,.18,0,.25s-.08.1-.08.17.21.09.16.25-.16.11-.21.19,0,.19.06.23S6,3.16,6,3.17s-.2-.11-.23-.21,0-.16-.11-.2-.17,0-.19,0-.18-.14-.27-.17a.77.77,0,0,0-.39,0s0-.21-.13-.18a.75.75,0,0,0,0-.21A.37.37,0,0,1,4.8,2s.16-.18.11-.19a.38.38,0,0,0,.33-.07c.06-.06.09-.16.15-.23s.19,0,.29,0,.13-.14.05-.21c.09,0,0-.15,0-.17s-.29,0-.17.09-.19.32-.28.15,0-.17-.1-.18-.09.06-.11.1-.19-.15-.23-.15,0-.14-.05-.18S4.54,1,4.49,1s.13.17.2.21.1.06.05.09-.16.05-.17.08,0,.13,0,.19-.06-.16-.11-.23-.24,0-.23,0-.26.07-.33,0,0-.18,0-.15l-.14-.12a4.2,4.2,0,0,0-.63.27.12.12,0,0,0,.08,0l.15-.08c.07,0,.21-.11.28,0l0,0,.13.17a.41.41,0,0,0-.2,0s-.13,0-.15.08,0,.09,0,.12-.15-.16-.27-.17H3.09A4.35,4.35,0,0,0,1.51,2.87a.19.19,0,0,0,.08.05c.07,0,0,.21.13.11a.09.09,0,0,1,0,.13s.27.17.29.18.12.09.14.14a.12.12,0,0,1-.07.12S2,3.5,2,3.52s0,.21.07.21c-.11,0-.06.42-.09.5H2c0,.08,0,.4.18.36-.09,0,.15.33.19.35a.88.88,0,0,1,.25.19c.07.09.07.23.16.31s.14.17.13.29h0c0,.09.16.09.21.18s0,.18.09.15A.74.74,0,0,0,3,5.67c0-.07-.08-.13-.11-.19a1.65,1.65,0,0,1-.07-.2s.17.06.16.08.21.37.29.46.17.22.09.22c.09,0,.21.13.25.2a1.9,1.9,0,0,1,.09.33c0,.13.23.19.33.25A2.8,2.8,0,0,0,4.3,7c.14.05.17,0,.29,0s.19.17.33.24a.55.55,0,0,0,.37.07s.14.29.15.31.17.12.24.2a.11.11,0,0,0,0-.06c0,.07.1.21.17.2S6,7.76,6,7.7a.23.23,0,0,1-.33-.12s-.12-.22,0-.22,0-.1,0-.19S5.57,7,5.52,6.93c0,.08-.17.06-.21,0s0,.05,0,.08a.25.25,0,0,1-.1,0c0-.08,0-.18,0-.27s.25-.36,0-.34A.17.17,0,0,0,5,6.52c0,.08,0,.15-.11.19a.58.58,0,0,1-.32,0,.6.6,0,0,1-.21-.44c0-.18.09-.34,0-.51s.08-.1.13-.13.09,0,.11-.06l-.05,0c.1,0,.29-.07.38,0s.11.05.15,0,0-.1,0-.15c0,.11.09.13.19.06s.15,0,.22.07.09.12.17,0a.35.35,0,0,1,.08.16c0,.07.06.26.13.29s.11-.15.09-.23,0-.23,0-.23c-.21,0-.13-.21,0-.33A1.6,1.6,0,0,0,6.16,5c.06-.05.13-.15.1-.23a.08.08,0,0,0,.07-.06s-.1-.07-.11-.07,0-.07,0-.11,0-.11.1-.14.22,0,.15-.09.22,0,.26-.13,0-.1.08-.17S6.95,4,7,3.94s.17-.09.11-.1c.11,0,.34-.11.17-.21,0-.06-.06-.09-.12-.1s.11,0,.15,0,0-.09,0-.11A.41.41,0,0,0,7,3.49C6.93,3.53,6.89,3.6,6.83,3.62ZM8.24,8.1s-.11,0-.17-.05L7.91,8c0-.13-.13-.18-.23-.25s-.14-.14-.27-.11-.15.05-.12.08a.57.57,0,0,0-.24-.15c-.11,0-.18-.17-.29,0s0,.13-.05.19.08-.16,0-.24-.22.06-.29.1-.09,0-.11.09a1.58,1.58,0,0,0-.07.15c0-.05-.13,0-.14-.08,0,.16,0,.33.06.49a.38.38,0,0,1-.08.32.49.49,0,0,0-.19.27c0,.08,0,.15.08.17s-.11.17-.1.28,0,.07,0,.11A4.25,4.25,0,0,0,8.24,8.1Z"/></g></g></svg>