<svg xmlns="http://www.w3.org/2000/svg" viewBox="0 0 10.29 12"><defs><style>.cls-1{fill:#0071b3;}</style></defs><title>Asset 1</title><g id="Layer_2" data-name="Layer 2"><g id="Layer_2-2" data-name="Layer 2"><path class="cls-1" d="M10.29,3.64v7.72a.64.64,0,0,1-.64.64h-9A.64.64,0,0,1,0,11.36V.64A.64.64,0,0,1,.64,0h6a1.8,1.8,0,0,1,1.1.46L9.83,2.55A1.8,1.8,0,0,1,10.29,3.64Zm-.86.64H6.64A.64.64,0,0,1,6,3.64V.86H.86V11.15H9.43Zm-6.65.86H7.5a.21.21,0,0,1,.21.21v.43A.21.21,0,0,1,7.5,6H2.79a.21.21,0,0,1-.21-.21V5.36A.21.21,0,0,1,2.79,5.14ZM7.72,7.07V7.5a.21.21,0,0,1-.21.21H2.79a.21.21,0,0,1-.21-.21V7.07a.21.21,0,0,1,.21-.21H7.5A.21.21,0,0,1,7.72,7.07Zm0,1.71v.43a.21.21,0,0,1-.21.21H2.79a.21.21,0,0,1-.21-.21V8.79a.21.21,0,0,1,.21-.21H7.5A.21.21,0,0,1,7.72,8.79ZM6.86,3.43H9.38a.85.85,0,0,0-.15-.27l-2.1-2.1A.86.86,0,0,0,6.86.91Z"/></g></g></svg>