<svg xmlns="http://www.w3.org/2000/svg" viewBox="0 0 11.15 12"><defs><style>.cls-1{fill:#0071b3;}</style></defs><title>Asset 2</title><g id="Layer_2" data-name="Layer 2"><g id="Layer_2-2" data-name="Layer 2"><path class="cls-1" d="M11.15,11.15a.86.86,0,0,1-.86.86H.86A.86.86,0,0,1,0,11.15V2.57a.86.86,0,0,1,.86-.86h.86V1.07A1.08,1.08,0,0,1,2.79,0h.43A1.08,1.08,0,0,1,4.29,1.07v.64H6.86V1.07A1.08,1.08,0,0,1,7.93,0h.43A1.08,1.08,0,0,1,9.43,1.07v.64h.86a.86.86,0,0,1,.86.86Zm-.86,0V4.29H.86v6.86ZM3.43,1.07A.21.21,0,0,0,3.22.86H2.79a.21.21,0,0,0-.21.21V3a.21.21,0,0,0,.21.21h.43A.21.21,0,0,0,3.43,3ZM5.3,9.89a.23.23,0,0,1-.31,0L3.06,8a.22.22,0,0,1,0-.3l.31-.31a.22.22,0,0,1,.3,0L5.14,8.82l3-3a.22.22,0,0,1,.3,0l.31.31a.22.22,0,0,1,0,.3ZM8.57,1.07A.21.21,0,0,0,8.36.86H7.93a.21.21,0,0,0-.21.21V3a.21.21,0,0,0,.21.21h.43A.21.21,0,0,0,8.57,3Z"/></g></g></svg>