<svg xmlns="http://www.w3.org/2000/svg" viewBox="0 0 12.79 9.43"><defs><style>.cls-1{fill:#0071b3;}</style></defs><title>Asset 4</title><g id="Layer_2" data-name="Layer 2"><g id="Layer_2-2" data-name="Layer 2"><path class="cls-1" d="M12.48,6.18l-2,2.43a2.42,2.42,0,0,1-1.71.82H1.5A1.51,1.51,0,0,1,0,7.93V1.5A1.51,1.51,0,0,1,1.5,0H3.64a1.51,1.51,0,0,1,1.5,1.5v.21H8.79a1.51,1.51,0,0,1,1.5,1.5V4.29h1.29a1.19,1.19,0,0,1,1.11.64,1.06,1.06,0,0,1,.1.46A1.32,1.32,0,0,1,12.48,6.18Zm-3-1.9V3.22a.64.64,0,0,0-.64-.64H4.93a.64.64,0,0,1-.64-.64V1.5A.64.64,0,0,0,3.64.86H1.5a.64.64,0,0,0-.64.64V7.21L2.57,5.1a2.39,2.39,0,0,1,1.71-.82Zm2.14.86H4.29a1.55,1.55,0,0,0-1.05.5l-2,2.43a.47.47,0,0,0-.12.27c0,.19.21.23.35.23H8.79a1.52,1.52,0,0,0,1.05-.5l2-2.43a.43.43,0,0,0,.12-.26C11.93,5.19,11.72,5.14,11.58,5.14Z"/></g></g></svg>