<svg xmlns="http://www.w3.org/2000/svg" viewBox="0 0 13.72 9.43"><defs><style>.cls-1{fill:#0071b3;}</style></defs><title>Asset 7</title><g id="Layer_2" data-name="Layer 2"><g id="Layer_2-2" data-name="Layer 2"><path class="cls-1" d="M13.72,8.15a1.29,1.29,0,0,1-1.29,1.29H1.29A1.29,1.29,0,0,1,0,8.15V.86H1.71V0h12Zm-12-6.43H.86V8.15a.43.43,0,0,0,.86,0ZM12.86.86H2.57V8.15a1.31,1.31,0,0,1-.07.43h9.93a.43.43,0,0,0,.43-.43ZM7.72,6H3.43V1.71H7.72Zm0,1.71H3.43V6.86H7.72ZM4.29,2.57V5.14H6.86V2.57Zm7.72,0H8.57V1.71H12Zm0,1.71H8.57V3.43H12ZM12,6H8.57V5.14H12Zm0,1.71H8.57V6.86H12Z"/></g></g></svg>